<svg xmlns="http://www.w3.org/2000/svg" viewBox="-7748 15587 24 24">
  <defs>
    <style>
      .cls-1 {
        fill: #ff8200;
      }

      .cls-2 {
        fill: #fff;
      }
    </style>
  </defs>
  <g id="Group_6419" data-name="Group 6419" transform="translate(-7794 14644)">
    <circle id="Ellipse_3753" data-name="Ellipse 3753" class="cls-1" cx="12" cy="12" r="12" transform="translate(46 943)"/>
    <circle id="Ellipse_3754" data-name="Ellipse 3754" class="cls-2" cx="0.495" cy="0.495" r="0.495" transform="translate(53.771 958.2)"/>
    <path id="Path_8357" data-name="Path 8357" class="cls-2" d="M27.033,13.6a1.61,1.61,0,0,0-1.6-1.6H16.4a1.61,1.61,0,0,0-1.6,1.6h0l-.3,10.324h0a1.61,1.61,0,0,0,1.6,1.6h.267v.8a.914.914,0,1,0,1.829,0v-.8h5.371v.8a.927.927,0,0,0,.914.914.9.9,0,0,0,.914-.914v-.8h.343a1.61,1.61,0,0,0,1.6-1.6h0l-.3-10.324Zm-11.352.038h0a.7.7,0,0,1,.724-.724h9.029a.683.683,0,0,1,.686.686h0s0,.3.038.762H15.643C15.681,13.9,15.681,13.638,15.681,13.638Zm1.562,10.4a.952.952,0,1,1,.952-.952A.943.943,0,0,1,17.243,24.038Zm3.39-3.39H15.452c.038-1.79.114-3.924.152-5.371h5.029Zm3.848,3.39a.952.952,0,0,1,0-1.9.968.968,0,0,1,.952.952A.943.943,0,0,1,24.481,24.038Zm-3.39-3.39V15.314h5.067c.038,1.448.114,3.581.152,5.371H21.09Z" transform="translate(37.024 935.571)"/>
    <path id="Path_8358" data-name="Path 8358" class="cls-2" d="M39.9,39.9a.5.5,0,1,0,.5.5A.5.5,0,0,0,39.9,39.9Z" transform="translate(21.61 918.3)"/>
    <path id="Path_8359" data-name="Path 8359" class="cls-1" d="M17,26.033h5.181V20.7H17.19C17.152,22.148,17.076,24.281,17,26.033Z" transform="translate(35.476 930.185)"/>
    <path id="Path_8360" data-name="Path 8360" class="cls-1" d="M27.976,15.124h0a.692.692,0,0,0-.686-.724H18.262a.716.716,0,0,0-.724.686h0s0,.3-.038.762H27.976Z" transform="translate(35.167 934.086)"/>
    <path id="Path_8361" data-name="Path 8361" class="cls-1" d="M31.8,20.7v5.371h5.257c-.038-1.79-.114-3.924-.152-5.371Z" transform="translate(26.314 930.185)"/>
    <path id="Path_8362" data-name="Path 8362" class="cls-1" d="M20.152,38.7a.943.943,0,0,0-.952.952.968.968,0,0,0,.952.952.952.952,0,1,0,0-1.9Zm0,1.41a.5.5,0,1,1,.5-.5A.48.48,0,0,1,20.152,40.11Z" transform="translate(34.114 919.043)"/>
    <path id="Path_8363" data-name="Path 8363" class="cls-1" d="M39.152,38.7a.943.943,0,0,0-.952.952.952.952,0,0,0,1.9,0A.943.943,0,0,0,39.152,38.7Zm0,1.41a.5.5,0,1,1,.5-.5A.48.48,0,0,1,39.152,40.11Z" transform="translate(22.352 919.043)"/>
  </g>
</svg>
