<svg xmlns="http://www.w3.org/2000/svg" viewBox="-7747.905 15627 23.905 23.905">
  <defs>
    <style>
      .cls-1 {
        fill: #8f1a95;
      }

      .cls-2 {
        fill: #fff;
      }

      .cls-3 {
        fill: #8c288f;
      }
    </style>
  </defs>
  <g id="Group_6421" data-name="Group 6421" transform="translate(-7773.905 14653)">
    <circle id="Ellipse_3755" data-name="Ellipse 3755" class="cls-1" cx="11.953" cy="11.953" r="11.953" transform="translate(26 974)"/>
    <g id="Group_6420" data-name="Group 6420" transform="translate(30.629 978.44)">
      <path id="Path_8364" data-name="Path 8364" class="cls-2" d="M25.511,19.6H22.59c0,.19-.19,2.391-.19,2.656h3.111Z" transform="translate(-18.53 -16.602)"/>
      <path id="Path_8365" data-name="Path 8365" class="cls-2" d="M34.722,19.6H31.8v2.656h3.111C34.874,21.991,34.722,19.79,34.722,19.6Z" transform="translate(-24.363 -16.602)"/>
      <path id="Path_8366" data-name="Path 8366" class="cls-2" d="M26.164,25.36h-2.5l-.645-.987h1.9a.228.228,0,1,0,0-.455h-2.2l-.721-.987h2.542a1.6,1.6,0,0,0,1.594-1.594h0l-.607-8.082v.038A1.6,1.6,0,0,0,23.925,11.7H14.894A1.6,1.6,0,0,0,13.3,13.294v-.038L12.693,21.3h0a1.6,1.6,0,0,0,1.594,1.594h2.542l-.683,1.062h-2.2a.228.228,0,1,0,0,.455h1.9l-.683.949h-2.5a.455.455,0,0,0,0,.911h1.9l-.645.911a.169.169,0,0,0,0,.19.209.209,0,0,0,.19.114h1.328a.209.209,0,0,0,.19-.114l.455-1.1h6.678l.455,1.1a.209.209,0,0,0,.19.114H24.76c.076,0,.152-.038.152-.114a.169.169,0,0,0,0-.19l-.645-.911h1.9a.455.455,0,0,0,0-.911Zm-4.212-4.212a.531.531,0,1,1,.531-.531A.5.5,0,0,1,21.952,21.148Zm-.114,2.808H16.981l.417-1.025h4.06Zm2.087-3.339a.531.531,0,1,1-.531-.531A.543.543,0,0,1,23.925,20.617ZM15.16,17.468l.228-2.884a.761.761,0,0,1,.759-.759h6.527a.761.761,0,0,1,.759.759l.228,2.884v.038a.761.761,0,0,1-.759.759H15.919a.77.77,0,0,1-.759-.8Zm.266,3.681a.531.531,0,1,1,.531-.531A.543.543,0,0,1,15.425,21.148Zm.873-.531a.531.531,0,1,1,.531.531A.543.543,0,0,1,16.3,20.617Zm.114,4.743.379-.987h5.2l.379.987Z" transform="translate(-12.2 -11.7)"/>
      <path id="Path_8367" data-name="Path 8367" class="cls-1" d="M20.759,21.74h6.982a.761.761,0,0,0,.759-.759v-.038l-.228-2.884a.761.761,0,0,0-.759-.759H20.987a.761.761,0,0,0-.759.759L20,20.943v.038A.761.761,0,0,0,20.759,21.74Zm3.719-3.567H27.4c0,.19.19,2.391.19,2.656H24.478Zm-3.377,0h2.922v2.656H20.911C20.911,20.563,21.1,18.362,21.1,18.173Z" transform="translate(-17.04 -15.175)"/>
      <circle id="Ellipse_3756" data-name="Ellipse 3756" class="cls-1" cx="0.531" cy="0.531" r="0.531" transform="translate(10.663 8.386)"/>
      <path id="Path_8368" data-name="Path 8368" class="cls-1" d="M37.031,33.8a.531.531,0,1,0,.531.531A.519.519,0,0,0,37.031,33.8Z" transform="translate(-27.279 -25.414)"/>
      <circle id="Ellipse_3757" data-name="Ellipse 3757" class="cls-1" cx="0.531" cy="0.531" r="0.531" transform="translate(2.694 8.386)"/>
      <path id="Path_8369" data-name="Path 8369" class="cls-1" d="M24.062,34.331a.531.531,0,1,0-.531.531A.519.519,0,0,0,24.062,34.331Z" transform="translate(-18.902 -25.414)"/>
      <path id="Path_8370" data-name="Path 8370" class="cls-3" d="M23.679,45.2l-.379.949h6l-.379-.949Z" transform="translate(-19.088 -32.488)"/>
      <path id="Path_8371" data-name="Path 8371" class="cls-3" d="M25.217,41.3,24.8,42.325h4.857L29.24,41.3Z" transform="translate(-20.019 -30.068)"/>
    </g>
  </g>
</svg>
