<svg xmlns="http://www.w3.org/2000/svg" viewBox="-7747.698 15667 23.698 23.697">
  <defs>
    <style>
      .cls-1 {
        fill: #a57fb2;
      }

      .cls-2 {
        fill: #fff;
      }
    </style>
  </defs>
  <g id="Group_6422" data-name="Group 6422" transform="translate(-7766.698 14630)">
    <circle id="Ellipse_3758" data-name="Ellipse 3758" class="cls-1" cx="11.849" cy="11.849" r="11.849" transform="translate(19 1037)"/>
    <circle id="Ellipse_3759" data-name="Ellipse 3759" class="cls-2" cx="0.489" cy="0.489" r="0.489" transform="translate(34.009 1052.008)"/>
    <circle id="Ellipse_3760" data-name="Ellipse 3760" class="cls-2" cx="0.489" cy="0.489" r="0.489" transform="translate(26.674 1052.008)"/>
    <path id="Path_8372" data-name="Path 8372" class="cls-2" d="M27.013,11.958h0l-.038-.451a1.545,1.545,0,0,0-.865-1.429c-.038-.038-.075-.038-.113-.075h0a15.619,15.619,0,0,0-5.078-.6,15.51,15.51,0,0,0-5.04.6h0c-.038,0-.075.038-.113.075a1.545,1.545,0,0,0-.865,1.429v.451h0l-.3,10.194h0a1.584,1.584,0,0,0,.828,1.392v1.016a.9.9,0,0,0,1.806,0v-.79h7.448v.79a.9.9,0,0,0,1.806,0V23.543a1.584,1.584,0,0,0,.828-1.392h0l-.3-10.194ZM15.8,12h0a.684.684,0,0,1,.677-.715h8.952a.674.674,0,0,1,.677.677h0v.489H15.766A2.07,2.07,0,0,1,15.8,12Zm1.467,10.269a.94.94,0,1,1,.94-.94A.931.931,0,0,1,17.271,22.264Zm5.191-.527H19.452a.377.377,0,0,1-.376-.376.4.4,0,0,1,.376-.376h3.009a.377.377,0,0,1,.376.376A.4.4,0,0,1,22.462,21.738Zm2.144.527a.94.94,0,1,1,.94-.94A.931.931,0,0,1,24.606,22.264Zm-8.99-4.213c.038-1.542.113-3.2.15-4.4v-.3H26.186v.3c.038,1.2.075,2.859.15,4.4Z" transform="translate(9.892 1031.136)"/>
    <path id="Path_8373" data-name="Path 8373" class="cls-1" d="M27.77,19.9H17.35v.3c-.038,1.2-.075,2.859-.15,4.4H27.883c-.038-1.542-.113-3.2-.15-4.4Z" transform="translate(8.27 1024.586)"/>
    <path id="Path_8374" data-name="Path 8374" class="cls-1" d="M28.107,15.115h0a.684.684,0,0,0-.677-.715H18.477a.674.674,0,0,0-.677.677h0v.489H28.144A4.1,4.1,0,0,1,28.107,15.115Z" transform="translate(7.895 1028.017)"/>
    <path id="Path_8375" data-name="Path 8375" class="cls-1" d="M20.14,38.7a.931.931,0,0,0-.94.94.955.955,0,0,0,.94.94.94.94,0,0,0,0-1.881Zm0,1.392a.489.489,0,1,1,.489-.489A.474.474,0,0,1,20.14,40.092Z" transform="translate(7.022 1012.857)"/>
    <path id="Path_8376" data-name="Path 8376" class="cls-1" d="M29.885,40.2H26.876a.377.377,0,0,0-.376.376.4.4,0,0,0,.376.376h3.009a.377.377,0,0,0,.376-.376A.4.4,0,0,0,29.885,40.2Z" transform="translate(2.468 1011.922)"/>
    <path id="Path_8377" data-name="Path 8377" class="cls-1" d="M39.64,38.7a.931.931,0,0,0-.94.94.955.955,0,0,0,.94.94.94.94,0,0,0,0-1.881Zm0,1.392a.489.489,0,1,1,.489-.489A.474.474,0,0,1,39.64,40.092Z" transform="translate(-5.143 1012.857)"/>
  </g>
</svg>
