<svg xmlns="http://www.w3.org/2000/svg" viewBox="-7748 15707 24 24">
  <defs>
    <style>
      .cls-1 {
        fill: #fff;
      }

      .cls-2 {
        fill: #ec2027;
      }

      .cls-3 {
        fill: #fcffff;
      }
    </style>
  </defs>
  <g id="Group_6423" data-name="Group 6423" transform="translate(-7764 14619)">
    <circle id="Ellipse_3761" data-name="Ellipse 3761" class="cls-1" cx="0.495" cy="0.495" r="0.495" transform="translate(31.2 1103.2)"/>
    <circle id="Ellipse_3762" data-name="Ellipse 3762" class="cls-1" cx="0.495" cy="0.495" r="0.495" transform="translate(23.771 1103.2)"/>
    <path id="Path_8378" data-name="Path 8378" class="cls-1" d="M27.171,11.99h0l-.038-.457a1.565,1.565,0,0,0-.876-1.448c-.038-.038-.076-.038-.114-.076h0A15.818,15.818,0,0,0,21,9.4a15.708,15.708,0,0,0-5.1.61h0c-.038,0-.076.038-.114.076a1.565,1.565,0,0,0-.876,1.448v.457h0l-.3,10.324h0a1.6,1.6,0,0,0,.838,1.41v1.029a.914.914,0,1,0,1.829,0v-.8H24.81v.8a.914.914,0,1,0,1.829,0V23.724a1.6,1.6,0,0,0,.838-1.41h0l-.3-10.324Zm-11.352.038h0A.692.692,0,0,1,16.5,11.3h9.067a.683.683,0,0,1,.686.686h0v.5H15.781A2.1,2.1,0,0,1,15.819,12.029Zm1.486,10.4a.952.952,0,1,1,.952-.952A.943.943,0,0,1,17.3,22.429Zm5.257-.533H19.514a.382.382,0,0,1-.381-.381.41.41,0,0,1,.381-.381h3.048a.382.382,0,0,1,.381.381A.41.41,0,0,1,22.562,21.9Zm2.171.533a.952.952,0,1,1,.952-.952A.943.943,0,0,1,24.733,22.429Zm-9.1-4.267c.038-1.562.114-3.238.152-4.457v-.3H26.333v.3c.038,1.219.076,2.9.152,4.457Z" transform="translate(6.962 1082.181)"/>
    <path id="Path_8379" data-name="Path 8379" class="cls-2" d="M27.9,19.9H17.352v.3c-.038,1.219-.076,2.9-.152,4.457H28.019c-.038-1.562-.114-3.238-.152-4.457Z" transform="translate(5.352 1075.681)"/>
    <path id="Path_8380" data-name="Path 8380" class="cls-2" d="M12,0A12,12,0,1,0,24,12,12,12,0,0,0,12,0Zm6.438,16.5A1.6,1.6,0,0,1,17.6,17.9v1.029a.914.914,0,0,1-1.829,0v-.8H8.229v.8a.914.914,0,1,1-1.829,0V17.9a1.6,1.6,0,0,1-.838-1.41h0l.3-10.324h0V5.714a1.565,1.565,0,0,1,.876-1.448c.038-.038.076-.038.114-.076h0A15.818,15.818,0,0,1,12,3.581a15.536,15.536,0,0,1,5.1.61h0c.038,0,.076.038.114.076A1.565,1.565,0,0,1,18.1,5.714v.457h0L18.438,16.5Z" transform="translate(16 1088)"/>
    <path id="Path_8381" data-name="Path 8381" class="cls-2" d="M28.238,15.124h0a.692.692,0,0,0-.686-.724H18.486a.683.683,0,0,0-.686.686h0v.5H28.276A4.151,4.151,0,0,1,28.238,15.124Z" transform="translate(4.981 1079.086)"/>
    <circle id="Ellipse_3763" data-name="Ellipse 3763" class="cls-2" cx="0.952" cy="0.952" r="0.952" transform="translate(23.314 1102.743)"/>
    <circle id="Ellipse_3764" data-name="Ellipse 3764" class="cls-2" cx="0.952" cy="0.952" r="0.952" transform="translate(30.743 1102.743)"/>
    <rect id="Rectangle_2988" data-name="Rectangle 2988" class="cls-3" width="4" height="2" transform="translate(26 1103)"/>
  </g>
</svg>
