<svg xmlns="http://www.w3.org/2000/svg" viewBox="-7748.06 15547 24.06 24.061">
  <defs>
    <style>
      .cls-1 {
        fill: #d7d2cb;
      }

      .cls-2 {
        fill: #fff;
      }

      .cls-3 {
        fill: #d7d2cb;
      }
    </style>
  </defs>
  <g id="Group_6418" data-name="Group 6418" transform="translate(-7829.06 14643)">
    <circle id="Ellipse_3752" data-name="Ellipse 3752" class="cls-1" cx="12.03" cy="12.03" r="12.03" transform="translate(81 904)"/>
    <path id="Path_8351" data-name="Path 8351" class="cls-2" d="M22.391,26.68h2.788L24.071,25.19l-.076.611a.232.232,0,0,1-.458-.076l.344-3.055a.232.232,0,1,1,.458.076l-.229,1.833,1.6,2.139h3.323a.18.18,0,0,0,.191-.191c0-.038-.306-6.8-.306-6.8v-.038a.18.18,0,0,0-.191-.191H22.7a.18.18,0,0,0-.191.191v.038s-.306,6.76-.306,6.8A.175.175,0,0,0,22.391,26.68Z" transform="translate(67.278 891.947)"/>
    <path id="Path_8352" data-name="Path 8352" class="cls-2" d="M25.393,9.642H21.345V8.458h3.437a.578.578,0,0,1,.573.5.232.232,0,0,0,.458-.076A1,1,0,0,0,24.782,8H17.412a1.033,1.033,0,0,0-1.031.917.232.232,0,0,0,.458.076.578.578,0,0,1,.573-.5h3.475V9.719H16.839a1.614,1.614,0,0,0-1.6,1.6v-.038L14.7,22.512h0a1.614,1.614,0,0,0,1.6,1.6h1.375v.649l-.84.84a.29.29,0,0,0-.076.153.2.2,0,0,0,.076.153.232.232,0,0,0,.306,0l.878-.917a.29.29,0,0,0,.076-.153v-.764H23.98v.764a.2.2,0,0,0,.076.153l.878.917a.232.232,0,0,0,.306,0,.191.191,0,0,0,0-.306l-.84-.84v-.649H25.89a1.614,1.614,0,0,0,1.6-1.6h0l-.535-11.266A1.557,1.557,0,0,0,25.393,9.642Zm-8.746,9.739.306-6.8v.038a1.108,1.108,0,0,1,1.108-1.108h6.072a1.108,1.108,0,0,1,1.108,1.108v-.038l.306,6.8v.038a1.108,1.108,0,0,1-1.108,1.108H17.755a1.168,1.168,0,0,1-1.108-1.146Zm2.215,2.941H16.991a.458.458,0,0,1,0-.917h1.871a.441.441,0,0,1,.458.458A.464.464,0,0,1,18.863,22.321Zm6.34,0H23.331a.458.458,0,0,1,0-.917H25.2a.441.441,0,0,1,.458.458A.464.464,0,0,1,25.2,22.321Z" transform="translate(71.914 899.055)"/>
    <path id="Path_8353" data-name="Path 8353" class="cls-2" d="M46.9,16.5Z" transform="translate(52.011 893.802)"/>
    <path id="Path_8354" data-name="Path 8354" class="cls-3" d="M20.908,26.175h6.683A1.108,1.108,0,0,0,28.7,25.067v-.038l-.306-6.76v.038A1.108,1.108,0,0,0,27.285,17.2H21.213a1.108,1.108,0,0,0-1.108,1.108v-.038l-.306,6.8v.038A1.1,1.1,0,0,0,20.908,26.175Zm.115-7.867h0a.214.214,0,0,1,.191-.229h6.072a.18.18,0,0,1,.191.191v.038s.306,6.76.306,6.8a.18.18,0,0,1-.191.191H24.268l-1.6-2.139.229-1.833a.232.232,0,1,0-.458-.076L22.091,24.3a.232.232,0,0,0,.458.076l.076-.573L23.734,25.3H20.946a.18.18,0,0,1-.191-.191C20.717,25.067,21.022,18.308,21.022,18.308Z" transform="translate(68.762 893.369)"/>
    <path id="Path_8355" data-name="Path 8355" class="cls-3" d="M21.83,43.1H19.958a.458.458,0,1,0,0,.917H21.83a.458.458,0,1,0,0-.917Z" transform="translate(68.947 877.36)"/>
    <path id="Path_8356" data-name="Path 8356" class="cls-3" d="M38.43,43.1H36.558a.458.458,0,0,0,0,.917H38.43a.458.458,0,1,0,0-.917Z" transform="translate(58.687 877.36)"/>
  </g>
</svg>
